<mxfile host="Electron" modified="2024-09-05T12:40:17.894Z" agent="Mozilla/5.0 (Windows NT 10.0; Win64; x64) AppleWebKit/537.36 (KHTML, like Gecko) draw.io/22.1.18 Chrome/120.0.6099.199 Electron/28.1.2 Safari/537.36" etag="DHC4HNNrzUAmB6lrOuWC" version="22.1.18" type="device">
  <diagram name="第 1 页" id="WiVWePs4TMMSrtzMe4Nq">
    <mxGraphModel dx="2391" dy="1206" grid="1" gridSize="10" guides="1" tooltips="1" connect="1" arrows="1" fold="1" page="1" pageScale="1" pageWidth="827" pageHeight="1169" math="0" shadow="0">
      <root>
        <mxCell id="0" />
        <mxCell id="1" parent="0" />
        <mxCell id="j3U7zeH72UrcDoGTYLgQ-1" value="" style="shape=image;verticalLabelPosition=bottom;labelBackgroundColor=default;verticalAlign=top;aspect=fixed;imageAspect=0;image=data:image/png,iVBORw0KGgoAAAANSUhEUgAABo4AAAJkCAMAAAAY1iO0AAAAAXNSR0IArs4c6QAAAARnQU1BAACxjwv8YQUAAAHpUExURQAAAFyb1cXfs9nj877Yr1eTybnRqM3V5LbPpQBxwVGJvK7Fnr/J1qi+mU2BsaS4lbS8yp6ykEd4ppiuipqujKixvUNym4+ig5+lsYyfgImaez5qkoaZepScpoCRdTtkiX6OcouRm3uLbwBwwDZcgHaGa4OHkTNXeG58ZXmAiWp5YTFSb2d1XnJ2gCxMaGBsV2lvdypHYVplUWNnblhjTyZBWVReS1xgZiQ9U05XRVVZXiE4TUdQQU9RWB80RkFKPEhMUR0wQT1FNz1FOENHSzlANABxwBosPDc/Mz5ARTU9MBgoNzI6Ljc6PzI4LRUkMS40KjM1OSwyKBMhLSkvJSovJS4vMxEcKCUqISgrLSMoIA8aIyElHSQlKCAkHQBwwA4XHx0gGh8hIxsgGQsTGhkcFhscHhUYFBYYFAoRFhUXExcXGRMWEggNEhEUDxIUFQYLDg0PDA8PEA0ODAQHCgkMCAoMDAMFBwYHBgcHBgcHCAQFBAECAwMEAwMEBAIDAgAAAABwwAcHCA4ODxUVFxscHiIkJikrLjAyNTc5PT5ARURHTERyxEtOVFJVW1ldY2Bka2drcm1xeXN4gXp/iIGGkIiOmI+Vn5acp5yjrqOqtqqxvrG4xbi/zb/H1cXO3MzV5NPc69rj82Twt4UAAACAdFJOUwCAgICChISEhYeIiIiKjIyMjpCQkJCUlJSVl5iYmJucnJyen6CgoKSkpKaoqKisrKywsLCxtLS0uLi4vLy8wMDAw8PDw8bHx8fHycvLy8zPz8/R09PT09fX19nb29vc39/f3+Dj4+Pm5ufn5+nr6+vv7+/w8/Pz9/f39/r7+/v85C1UOwAAAAlwSFlzAAAXEQAAFxEByibzPwAAdRJJREFUeF7tvY2fFMXW53lthmYuzdKMg+CuuOJz6RZHFMUBQbGrZZwLrDi2Iwu44NwuRtwRRwSGlh6W5okHWrBheWsQsFFe+i+dc06ciIzMyqy3rKyul9/384GOzMqIyKyqjG+eiMisvwAAAAAAAAAAAAAAAAAAAAAAAAAAAAAAAAAAAAAAAAAAAAAAANCB/PVfAACgYP6mDQ4A2eiXBQAACkQbHACy+Zd/WQYAAIUS1xH6ZEAKf4OOAACFE9eRNj8AxICOAACFk9SRrgbAAx0BANoAdARqAR0BANoAdARqAR0BANoAdARqAR0BANoAdARqAR0BANoAdARqAR0BANoAdARqAR0BANoAdARqAR0BANoAdARqAR0BANoAdLTs5UPfvKlJkAZ0BABoA9DRsveN+VISK958d40kGqTZfN0CdAQAaAM9pKNXzzqvNIbX0bgx30miQZrN1y1ARwCANtBDOvrcEK/rQgN4HX1tzCVJNEiz+boF6AgA0AZ6R0crfmYd7delBvA6+tCYQ5Kog/3GvK3JhvJ1I9ARAKAN9I6O3jbmrDE/61IDeB0tW/OS/VsHXxrzviYbyteNQEcAgDbQOzo6ZMybF+ifLtZPpKMGiOmox4GOAABtoGd0tOqSOcuSaNws0FENoCMAQBvoGR19YMyny9405tIKXbHspfHxNcuWvfz58eOfvu0mYqet8zqiF6PY6s3xr49//aHbZsXblOX4px+ukqVXx8d/MObr8fHxj3lFLN+r747Thu+/rIv02ktU4QeHjo/7saZuAzoCALSBntHRcZlV93MQtJBmRldRFMOcVT1krLM6CsKkl7+z21z6lJdWfX7BLpqfxSn7dYkYpcUg3wqZ3sd8arVIr73vKvzGyqzrgI4AAG2gV3T0kjE/0R+ywTd2hZjgbQpizE+sgguvVluX1NEo6+dnMpwxH9Dip/T30vHjnOkS5/mQX7Cw0qJ8L0u5P5zl/3+SyIpe+9BX2KV3J0FHAIA20Cs6GjdmnP68To1+0Al3wVwaX7Vs1fuXnKUy1iV0tILk8QPPliN1calfmkNyP9OrtP5rTsTHjny+ZSSeC+9SWLSKhSVzzum1S+bShyuWSYjUxF1RHQB0BABoA72iIxKF9L1RYPKhrBATmAtWAB9QUiZjZ6xL6Ihk8pN2rI3zxi+5kaC3SS42laojevlnnfNNScOBFFd4yY4skau68/Yk6AgA0AZ6REcUFXFfnfSruS4xMsElHtphyFIyCpSxLqEjCpyc0xLQKzb4StURCcfnO25XcoU6z+Hdbu2tg44AAG2gR3S035iPJfEyRSPJKQoEWUp65qquc4k1VEbGrANSmA1/0nRE+S75fLSS5RNU+KoxZzXZXUBHAIA20Bs64gcEaS/ZT3YQiQhMwJHJD/y36jqXeDPDGytGR309aTqifDZEY0g+F+hPUOFLZDlNdhfQEQCgDfSGjkgErh/sY++SUD2jVg7V17nEB5W9aqs+OC7T5YhsHVE+P61PQqw1sQqhIwAAyKY3dHSIp2VbeFa1natQVT1Epo7GQ60IH19iEVmydUT5fOHLltlNgwqhIwAAyKYndLQqsAXzuawN1fN2SmddxTqX+DAZHZFnzKG3R8kuVceOKN9xWcGQfHgSXlAhdAQAANn0hI6ozXfBkdys+rM8ESEwAfejyQ1DVde5BHkqNna0ijyiT/ipqiPKF40dUezFC0GF0BEAAGTTEzo67ubVMTxoI1OryQT+Pp9vortS09bFdfQqBTbuXlrGhVFEqCM/p9vl41l99lXiUys7Xzh0BAAA1egFHbGAvAZETqIcMoGLYNZc0vgmY11cR6t+jn7GbwV56UP/LIZoBt9+P4Evysev+nyU5tJ94dARAABUoxd09HF8rIcMILf/0F9zSUKYFRQI2fgmY11cR+yfS3Y6xKtnP5foyHb/reIHq1odUZ1+nCiWz/bqrTik++Rfg44AAKAavaCjn+yDTh08sYEjIFYPSePt0Q/YIlYTGesSOuLQ5tKno6NvfylrOI469PayNe/LXG+rozcpRVvwr0cEyuFpffvfful1eWqqPKA1eg06AgCAKvSAjl6lZj4c6uFp3xy5kAkOUQhkkccBZa5L6Mg+0dvCw1AU9Vh+oKK1W5CFQ8R/YOJlXUv8bJ9FFL0GHQEAQBV6QEcfJ28Tepva/RXWBCv4tyEo1HlXX8paF09QQKS/d3Tc9tl9SOES8fkKqkt1ZH8R6VL8ByaWadnGfK1PCwrLpNWa7C6gIwBAG+gBHa0aHU08YW50lC1iTbDmg/F33QO509etGB21wZVPMKtGPxz/QNXDL33wMYc7K6Rky+j74+/L9rF8y159c3z8A78cvvbqaFRpNwEdAQDaQA/oKIsgMPGkrQM1gI4AAG0AOgK1gI4AAG0AOgK1gI4AAG0AOgK1gI4AAG0AOgK1gI4AAG2gh3X05s+XoifZKWnrQA2gIwBAG+hhHYEWAR0BANoAdARqAR0BANoAdARqAR0BANpAUkcAVAIdAQAKJ66jv2vzA0DAP6AjAEDhxHUEQCrQEQCgaKAjUAfQEQCgaKAjUAfQEQCgaKAjUAfQEQCgaKAjUAfQEQCgaKAjUAfQEQCgaKAjUAfQEQCgaOI6+qveaAJAwN+gIwBA4cR1pM0PADGgIwBA4SR1pKsB8EBHAIA2AB2BWkBHAIA2AB2BWkBHAIA2AB2BWkBHAIA2AB2BWkBHAIA2AB2BWkBHAIA2AB2BWkBHIJ395sKoJgHID3QEagEd9TorRkeb0spxY96XxPtf739ZEg3SbD7Qm0BHoBbQUa/ztTFmv6YbwevoUnP5m84HehPoCNQCOupx1pAVzM8rdKkBnI5WXGhAK6+Ovq6pxvKB3qfPdMS9EswqXY54dXx8/MPRNbrkGH1/fPxjf/a4E+n10XBDWmriTO4ioKMe50OykTFv61ID+Ohovzn+qiTqgKrSVGP5QO/TZzr6Tk484uzHoXlWjP+s6y8deknXEe+etSt//tguU1JepY2/kxXMm7S2t/u/oaMeh86KL405pEsN4HXUCHS+aAqAOH2mI5aLcuFNXUdGcTIS/Am2X1cQH8gKSoiO3qWEv5b8wZivNdmjQEe9zcuGYhS6EqvsMqgFdARaSv/p6N3R0Y/HySHGOB+9yV3n39D6d/dL9PSuXf0+rx1d8/Lol5fMuKyhFTZ2os1cV/uHdB4nu/h6DOiotxnny62fmjELdARaSv/pyArldVLQWWuUFRQbXVIFSTe6moZO0C8lsWzNfhsL+dx0LWlsB94qyqxdeT0LdNTbnOULKnLScV0mQR3/hoKmLy/Quk/tNz59ndfRx8eP+xHWN7+mM+fCIZ05vuqDb/hq7/jn9ppt/3HKY44Tn/NimO/l8eNU+HdfuqtEW+H+H8yl49EZtmqcrxh/+rTxSA50Af2qI+lws6fSfjp5orsu3qWTR2KhVbRBIuyJcn/uYiLKrFbrXaCjnmbUGGr3X4q+3KKZZR+yRYizOjCasc6eQz6xbNWXdhNjxDfvkmEsF+SSTkdjiUu8GOVb9oGWTReB1jVhhcdVP6+7bvVo7Bb0EH2roxX0RZc5pjzL9UNZZaHTSUxDZ6lJiCbKvYZOCx76fZUyNzEjqbuAjnoaurRiJVDU4YMQMgFFSxcOfcqd2hfsRVnGuqSO+NUfPv+cYxieM0fnx0/j4+P7yUrS6fBpPDqK8vGtT2cPjR9iX9kLPFfhIQq2tJ9iFb369fuj73956awsgx6jb3XE33aZgkDxTWwQ13XEvUx/E7eqB7m5U49ONzqJenweAwEd9TIrLtjv/wckDrtGzg263OK1PG/U3hmUsS6hIx5Kleuzl49bHX1tO+P4+k1tR7ltgvD53qa1n0rqY0rJ5aFU+DlVuMJdIfJwrp3/t8bOLQI9Rv/qiEwil1x0HScXah66vpMVdEH3TTw8CnLzVj/wSXSp9x9yAh31Mu9qE7+Gvt1uHIdNYOXAdrBjqRnr4jricVhnirdjJw/l0ZnkVI5NEL4AOp1cbOZK5wrtOl8qXTrazUFv0r86+kkvwsg6bh6Dhb7z3/Bf7gQ/bjsllCC39OW9TyeRnqG9DHTUy9Blmf3+fxM9IYFM4O5CYktJuJOxLq4juj7TiUBJKKTS8R7KbBOEy0ev+vmp/KgG3iN6TacSLTuk47njeIhDb9O3OnqdknwxyDMW/OQega7OpNeCJ82ZS+NBR16Um6BThMg4+XoK6KiHWXXJXLLf4ffp2yyJQDMEpV3fWfY6l6BzJ97V4KHLNx3vobPGJoggn3OdDGaxfIIKSUNiJu4mRDddD9OvOlpDwdF3fBryUFHkGIbvN5LEyzyGai7t9xFSbFN50FcisOpNoKMe5gMfg5CY3K14gQm4k0B6AKqucwl6wd6iF7JqdPT9cXqlio5i+chNvEtBhXRK2p2kdeaH94MrRNBT9KeOXv3gghv14TFU/hvB3XDWOqv2i3IuuTPFvyDQRZy5oOmeBjrqYb6LbgeneF9DlMAEyz5VFVRd5xJUmt/IsuoDuahjqugolo/kw7dABRV6Ha35hgu6tB9C6k36T0eOC/a7zjqKDRDJHUmaXPYSXbYRetsDpYLoiPvyen+WNwEd9S58u1GA9tsl1JOYk52yziVIPfH+glfpuo9EdPz4D1V1RPl84SwfHrwNKvQ6orOTp5Cbn/Grfz1J3+roS3UQd9bFJ8d96E8cZg0HQXrVSIlIR3z3LMaOQHczzt/ugLhdGLogk/ltVde5BAUvboKc8BKdInaqd/Wxo6/DfDoAFVQY6GjZspf5EvFC0E0Beob+09H+8fHxD6IfiOCpDPFLLbr0k5l1jlf5zjzp0KC//ixgjfE94pVd5T0HdNS7UFhyiE4IC0Uw9psfqoeiEQl4qq5zCbp2i019o0s7nU9XXUd0bRflo0LYTUGFMR3ZkKsPZrT2If2no+RlFX2145N16EotPjvopUt6soS56Yz8Um76i/f09SLQUc/yOn2Bo3EYavVtxzWZwF1mcW+ehDcZ6+I6osAm6FmQc0mfeBLTkT+LXD46kXw/A99lxFd/vvAKHXE1sStG0CNAR3RJGD07kuAZc7EOBzmpZJMgN50gLCLKjKcygK6FApGgXecHZ7lOODfBYZxv92Yy1sV1xH0Gbjj1XfIcrddrvagL/GzQO+7y8UnnBp1oSyndF16po7f74bTrR6AjHhsK19GVVzLiodNPuhyiLfkKjq8VeSJEz4+qQke9Cn+Nw6kHhyITqJg4YLJbZKyL64iv3OzziF/6hk8Md0s5n1VOR7St75jz+WhD+3AheZRq/B7bSEeHVHVR0AV6CuiI74cN+rv55tdY9zdB3/5EZx2dPbZz4Rt3odjDQEe9Cj8MIZyLw7eZcuRCJrggzz7laWz6xPqMdQkdcXh06fj4OK1gHXGBP42PfkyLl5yOKPox+8e/jEdAa6hsc3z/uPziWMUAltMRFfbx6Oi79MrPvd9H3o9ARzwKFE1IeOmsC47e91HPy3S9JieGz80P8rbXh3z69fqFGnTUq0R3Gln4+Tw8R4Da+w/oGkxwv+2QsS6ho+gnIMyXrCy6bhMuvH3c6YhDMobTUb6X+DS0aFd59JrXkb+F6VL8QSqgR4COxDbmS/v9lp9nsZN2zppvbNfAm2Son+T887npTHEx0Ze9f6UGHfUq35if3T2wlk+tn8QEH/CM0u/8hVrauv3uJ/59YtmyVfKDEJe+1qu5N3np7Jcv0YnihmjXUFF6lgX5lo0f5xPxp0PONMFrb+rvMa/6VIQUPCgF9BTQkXzZme+OH5frNu2qk5PquNy/5x7bTSnJzSNG/PR8hgdhk517PQZ01G9oYPKS7yAg0tZlsGI0diff65Wn3Mvu9Imzpo7CXx8NuxdBTwEdEaOsHOVnN7Q7yheClp/0LKEk5+behqiPgy4ovZt6E+io31D1xEhbB0BL6TMdfXPcdXvHeftLCYx+PvR+cOn1/iHuujt73J+FmvvV48e/iXoLVnx9PNqiJ4GO+g3oCCwJfaYj0ATQUb8BHYElAToCtYCO+g3oCCwJ0BGoBXTUb0BHYEmAjkAtoKN+483x8fhT7om0dQC0FOgI1AI6AgC0AegI1AI6AgC0AegI1AI6AgC0AegI1AI6AgC0AegI1AI6AgC0gaSOAKgEOgIAFE5cR3/X5geAgH9ARwCAwonrCIBUoCMAQNFAR6AOoCMAQNFAR6AOoCMAQNFAR6AOoCMAQNFAR6AOoCMAQNFAR6AOoCMAQNFAR6AOoCMAQNHEdfRXvdEEgIC/QUcAgMKJ60ibHwBiQEcAgMJJ6khXA+CBjgAAbQA6ArWAjgAAbQA6ArWAjgAAbQA6ArWAjgAAbQA6ArWAjgAAbQA6ArWAjgAAbQA6ArWAjgAAbQA6ArWAjgAAbQA6ArWAjgAAbaDfdTQ6ukJTyuvJFRGj7344ukbT/QR0BABoA32uo3FjftCkZb8xn/Pfr03EOK94Vdd89y4v9RXQEQCgDfS5jl4nwbysaeGsMeIb6x4L++ljTRPv8+v9BHQEAGgDfa4j1s+nmmRIT5eks460s39ceX3ZslFa/unj0dHx7zRY6iegIwBAG+h3HX1qzFlNMrR4SBKkn5ckYfnBmG9s6tVvEB0BAEDr6XcdvUzeoejHQcHSm5KI62gFLcb69PoK6AgA0Ab6XUfLfgp761435oKdWBfXEffVabIPgY4AAG2g73X0sTE/a1L66mReXVJHr9JiEEP1GdARAKAN9L2OXiLTjGqa++o0HdfRiktuTKkfgY4AAG2g73W07DsfEXFfnYuU4jpa9g0tf5l5f2yPAx0BANoAdPRB5KBPo3GkhI7WXKAVP/fdnDoLdAQAaAPQ0RoSjZ1Nx311boSIVr47anmVl0fZR+bnD/sxQoKOAABtADrijrgvJfG6MT9JgmD5OFbxipeOS7ofIyToCADQBqCjZe+72d2fBk9cEPco+tjUt7+Tpf4bQoKOAABtADpatuqS9tadDe51Je+4hwR9oKsofOIZDRpK9RHQEQCgDUBHy5YdsrO4XzfmO7uCIO2EUxkcb/IQko409Q3QEQCgDUBHy5a9a5+b+qkxH+uaTB0tG6VQar+m+wXoCADQBqCjZctWUMjzrvTVRT+ul6WjZcfDGKo/gI4AAG0AOiK+5N661405rstEpo4ohor/YF/vAx0BANoAdES8acylVeSZaNJCto4ORQ9x6BegIwBAG4COmJ+Nef8sKUkXibiO3vXpNbRpYK2+ADoCALQB6Ij53Jiz/gf2hLiOzpr9duml74z5ORph6g+gIwBAG4COmNfJPjKdwZPUkTHffT4+Lk9m8M//7hegIwBAG4COBPYNT/b2xHX0tjyxTrjQb1110BEAoC1AR8KHJBr/gCDmgrkU9smt+vgHkdHZ8WB8qV+AjgAAbQA6qptXR/0jhPoL6AgA0AagI1AL6AgA0AagI1AL6AgA0AagI1AL6AgA0AagI1AL6AgA0AagI1AL6AgA0AagI1AL6AgA0AagI1AL6AgA0AaSOgKgEugIAFA4cR39XZsfAAL+gesUAEAbUBMBkA2uUwAAhfMPbXAAAAAAAAAAAAAAAAAAAAAAAAAAAAAAAAAAQH38/6Dl6Fubwl911isAoNf4m57lHpzujfE36KgA9MuYgr7tAIDeQ89yj64G9UI6WgQtpbqOBgAAvUiajvQlUA/QUQFARwD0IdBRTqCjAoCOAOhDoKOcQEcFAB0B0IdARzmBjgoAOgKgD4GOcgIdFQB0BEAfAh3lBDoqAOgIgD4EOsoJdFQA0BEAfQh0lBPoqACgIwD6EOgoJ9BRAUBHAPQh0FFOoKMCgI4A6EOgo5xARwUAHfUD2yaO7R7WNAAEdJQT6KgAoKPuZu2ukmXXyFpdVclmQ5R0IQeDu46UyxO7BnWRGNqm1W8b8Ws30+IOTYNOBTrKCXRUANBRd3OETaNM7RvStQl286sndSEH26QaE7jmgF3DTE+st+vO8JJNgo4FOsoJdFQA0FF3I22/Zyo9KpHo6IQu5OCYVGLKukjEqp/eEq2TFOhcoKOcQEcFAB11N3EdUQyUNkQ0SFvNbNOF5hnWOkzULZiofsSvk1dB5wId5QQ6KgDoqLuRtn9kZGRbqcwpCoKCkZ2ItRs1kYcdtgZjduuKoHobOEmHIHTUDUBHOYGOCgA66m6Ctn+jpM0uu1QALLwjM/RfNAwVVV/ilGHrQUfdAHSUE+ioAKCj7iZs+4ckQJqS8GiktHv9wMCWY+UD3Hu3oVTaQqs37C5tc515g1tKJRcybdyxr7xnmw+g4nk9a7n0zRIG6aSFWPWnOMk9gtBRNwAd5QQ6KgDoqLuJtf0beMFspRSr49TAHl7crYM+pYFB/uMiG3lNzLVeREIcs/aJ543g+XnTgzK7zk8aD6qfcC9AR90AdJQT6KgAoKPuJt72y7TvPZRgpZzZxUtsCIlr6K9srJENO2iKE7u4+80yJQFSPG/ECVoxMTDEm5/RVWH1+zjJPYXQUTcAHeUEOioA6Ki7ibf9W3jpICVYKTPWM4GOgohnPScPUGKEE1PHJk7yXwmd4nk9kmOzzvZ2HXtB9aJCeh066gqgo5xARwUAHXU38bZfeuvYKSIg4kR5emuko42ySraUO2N5XjZr6CTP3JY1fOdQPK+H5ypMD+q9sPt0ZVT9ehEYd/dBR90AdJQT6KgAoKPuJt72D/HSDCWsUqY1iHE6slvLCBH3vHFfncRTG3iNiOkY/Y3n9XDv3gT9ld466eYjfPUbZAAKE727BugoJz2qoycLC880uQRAR91Nou3nJV60SuGuM8brSHrrePabTG7gvjp+ys8p3saGP6yZeF6HBF6yUnrr5IZXrb5cLktXn5kRr0FH3QB0lJOidPTsCp0+v+lCC2iovLt87pp7utR+oKPuJt722+cmUEKUwoNIgteR9NZxBCQ9bqwUjpJOjAgyF2EomdfBJuO+Os3LcRIh1XvssBR01A1ARzlpVkdPHszfmLs9v/CnLid5wqfPvC40zB8Lii43Vt4cb2vMVV1sP9BRdxNv++28BEp4AQnREm8+Q1LhCEc63Kb5pYC1ybwOzmkdJL111kwxHZ3RkSboqBuAjnLSnI5+vybnCnPl7lNdGSOXjualZOHab7bTrYHyHklGY37R5fYDHXU38bZfAhc/lSFFR9Jbt3VgkI3CfXX+MXTKjIuOkjqSuOpUWZBJC7Yzz+voVNn/7gR01A1ARzlpRkfPb8jJ4ph9rOuf3Zufv6dDNrl0FMmOuCoBWNXywooXF3/lTW/M37qry+0HOupu4m2/TLbmWW9ZOhKrTAxs5T/cVyd3xk5ZyzB831CqjoJfkrDY3jypfiT+U0vQUTcAHeWkCR09l/Y+4PIf9oWHvKD9a7l09Atn9kjxVcsLK15c5IVfNb00QEfdTaztt09l8JO1U3Qk20/LExTs5Dhe5sGkgFQdTfHKEO7yS1cPdNQNQEc5aUJHtivtyo17C/M3ZiV99bm88IDTLdPR/Pz8HVv8DVpVtbyw4sWn1bZsD9BRdxO2/cEz6zJ1JL11IzxixH119rGo/hkLljQdyaBUHBkpgo66FegoJ43r6OllPjN+tX1jz2y/2n1ZaK2OJHWLU+ZxIzr6gxdaOKevCaCj7iZo+zfbCEae6J2pI3snLP9np2pLJ5z92TxHmo7kgXT+waniNImpoKNuBTrKSeM6EkPM2XjI9dzxJLanCzK/+v7CAo8lOX08+33+Nze2ZHn82/yDaM3ThQUq6um9+QeuRCLSkU2SXGI6evKAQqeHnJGJVfxs4T4v3F1YeGJfXfzz9/n536MJgPEK7dLis0fz97TH8fH8/COXlXi+8Nv8/G/6Wr1AR92NtP0l4og4xvW8ZerIZiD0Rlbp35uyPhradoRvHErR0SCHU3p7EiFO41kP0FHXAh3lpGEd/cnnhYnaZxm3MdTc24414a7Tx/M7sjzrN392U1bQJtYlHGpdW3zIAZeNsIRARzJr4k6oo2f35GVi1sZAsYrda8Zc5vjtub0FiZb0LqR4hXZJd+oaHcSfdlzsppru+X0t/FpgqNpAR92Ns4tDf30vW0cS2RC2r06ffGrOlO2trHyLbIqO5NfNg1VSK/8QOnTUrUBHOWlYR9Ixdk0XiOd8f6p5aGcQKLdUHzevyiLJQHvSHkfq+FUaeN7sl99lRdATF+hIdOL1RiueR8IRTyUq1gRDFTx2O0BcFSfGK5SlP91GV57KwTHXrI+cPGUX6gc66m4SOtqns62zdSSRDaGPVRgYipWQoaODvMo+SkgQp5UpAR11K9BRThrWkfghHJqRJpu8wAGHclv1EWH9ZYedZm0Ecp3X8GZXRGgZOpLo6FGgo8ec8HCvX6ziIFR6uvhn8BJ5hxUTrzBYYoIpgw+4cun3uzLHq8mw9QMddTciCuXMHj/hOltHKjDtqyMGXbxEnOHn2aXoiPvqwgkPtreOEtBRtwId5aRhHYl9KBjy3OYV1FrPz0mUcW1ubo4k4XT06x0be0howm65QoHSc8lDkvGbXbma3ln3VPTyZ6CjP8gr8wvPFv+QHWFLxCq+NyeTK67OzdFL4rJrDxZ+t32GXEO8Qrd0/bbX2M2boifxJz/eQeZsPLwWyLI20FF3s3YXDxwRW0Z4LMfDq/3Ug9jSBtk8fEDq+tKB8tSZ8sHdGv/E8zI7aE0QHNlNeM7EZvrLEVVI2jrQaUBHOWlYR9Lau1lsjMz75rnYlTPrzBUS03N5Zg+rQOa8sYRsKXN+M3683B86XMN4HT0TocxSyuto8Y4ELlQuG8TeXxSbWbfAC7KNpK7JFEDZ4gol4xXqXpIrn1gfXXuquynVs5gCS9YNdARAHwId5aRhHUnsEA7sS0vPaqnUEbfz2r3GYy8co7BaCHaYt0xFky86mp+fv2Ud8TutinTkkVhLUhk6kjmAVn/2UQ0+anMVBnspAZR113VO8iFy9XZVY0BHAPQh0FFOGtaRDMfwkI3jHq+4zakKHVl9yH2p3KvGzbx4Szd14YmuiwhnK2jZKToS20gqQ0esINWfHQZ6mKwwKFXKsIGXDI+xjsRLs/dSH8pXDegIgD4EOspJwzoSVXC84pDGW6ZRZ+hIZruxjoJpbgK1+CmWIUIdXbZTwsMNn/52e84OEVXXkQQ3sm5xUSbT0V7GK0zXkXQ/so6kKOKmxE/1Ax0B0IdARzlpWEfiFNtsW6IusVo64r8hFHXU0tGVWxqaRBva8SSHvJiuo2eccIGQrHUz/urVkY2pmDvByFZtoCMA+hDoKCcN68jN6/bI+I6EDw3qiFdV0dGCfbyD4jfUxxI55MV6dUT5G9PR4mP97STbY1gv0BEAfQh0lJOGdSQBw2wULNhfF5LlWjpiyyTGiaroSNOK31CCsRuPKGiqOXbEsy6uyjrdxI0d1a+jxcU/b9ubl6LHDNUGOgKgD4GOctKwjuxDgnS+GiHD/TLP27bo+kqajjjSSPwmXuM64s5CuYM2qSO3S5GOOI66rJ19cqeTm1nXiI4oypJDbOShrNARAH0IdJSThnVkp0zzzazMc/sYHasCmS6g/XhpOhJ/xGcFNKwj6YGzGSIdhRUHOpJBJjunW54HwU+xa0JHjf9kBXQEQB8CHeWkcR3Z3rnLd/nJCL/ZoRUbrdjA6eqfi08TcxQ4yToSa/yqvV5/zHPc0rCOZKK53Pz6QDrROBWrONCR1HeZZwHaASfO3pCObtpluXEqigdrAx0B0IdARzlpXEc2Kgn5RTvEnttRlooZbJxkHdlw5fLc/Pz8bTIOt/WN60jEcuvRQ90LeTGsONCRrc9clYfO6YBXIzqiV2fvPFy4K5M1GrkbFjoCoA+BjnLShI7iM62puff9WvbRcOKesNnXVbTSaUNoTkeiDQuXZl8NKg519Ef0dFTaWh60F68wWErRkXQMKvr7FPVRXUcAgB5Fz3IPdNQQTeiI2uugmb98J4ob7ANPs6OjxScyK8BymUeRGteRnZRAzP7Om8mLYcWhjhafRvVpJ2EjOrLDZEJD87yr6ujv+r0FAPQa/9Cz3AMdNURTOlp8dv/uHMvg8o372lFneXaXW/Ab1PI/v2mf7M3cpqQbenl0Q4abrt78TTKGm0Xco5UJAQQbLtwgG87debp4N9oqqpiCt7m5635a9sNbXN/cLTcxLl5hsPTkus/2B628wZJ9/mCOI7Brt3xx9VFNRwCAvgE6aojmdASqAh0BAAjoqCGgowKAjgAABHTUENBRAUBHAAACOmoI6KgAoCMAAAEdNQR0VADQEQCAgI4aAjoqAOgIAEBARw0BHRVANR39Ve9QAH3I3/RL4MG3oYeo+HQJ6KghoKMCqKYj/eqCvkS/BB5dDXoC/VBDoKOGgI4KoLqO9J0HfUeajvQl0PVAR/mBjgoAOgJpQEe9DHSUH+ioAKAjkAZ01MtAR/mBjgoAOgJpQEe9DHSUH+ioAKAjkAZ01MtAR/mBjgoAOgJpQEe9DHSUH+ioAKAjkAZ01MtAR/mBjgoAOgJpQEe9DHSUH+ioAPpHRxtKpS2Dmga1gI56GegoP9BRAfSNjob5l31LupCXUrl8cK2mW0phBTdKj+ho+IQxJzfqQl6GRkbWa7K1FFZwFtBRfqCjAmi7jtYfKEdMtC9cWZvQke7HkVKpNNLoXmzmsvboQp3UVV8zBRdDq3W0diSijb4d4Td0my4wdj+aavw3TFNZW3ShXuqpr6mCcwEd5Qc6KoC26+gYNxCeVl241iapo9h+HBnWtfVR4jwndaFO6qqvmYKLocU62ieHrcwM6driSeoo2o+ZcqlBLe7hbBO6UCd11ddMwfmAjvIDHRVA23V0Rk5Ox4iujbOWwohjLb6GTuoovh8zuxuJkCSIOaELdVJXfc0UXAwt1hFf/0ekf7SDW0qlVl+eJHUU24+ZPQ2FxWKNsi7USV31NVNwPqCj/EBHBbDEOtqga+Ns45fSTdU01XVkzKkG9Dd4ypjpBntX6qqvmYKLocU60oNW0t/q3dkvNU1SR7wYMLVV19eDlNVgT6rUEpFeXzMF5wM6yg90VABLoyPpUCcyLobbpiPeh20H7SXsqWK7kNpdX04K0NGMDJ4RGf1S0lPZBh3JfpD3hXBcqRYUvTWyOcNV1K6viYLzAR3lBzoqgKXRkaazaJuObHL9SU6bfXapINpdX04K0NEZTWfRLh3Z/Vh/hNNmJj0+bxXtrq9OoKP8QEcFsPQ6Gt5VKuko7zCltg1sLsmZO1Eq7dYR/yFaVT6w2wlqcKsMMmy1k6J1aXDznvLErmgK09ptE3RReqDkTv8qOhoYlHkGM25+Qby6HbQfrthhWthBfzfTH7f18NbSsfKxXX5yQmJnHRn1xY/FFZxWJ1H1fWgtnaGjlDlpg4l1a0fiDfxGCkCjNdk6GhjYNcNLR3SJaWzKXTK4T8tdvb7ksWRSx/vQENBRfqCjAlh6He3gFXY2GWvozICctZYDsnrzlC6WbZvPZjkzMMFrdrsl3WZGG+6N0US2g1GmLB0NbOAFs8suxKsb5JRrUWTQeShW1jY3Wq2d/8mddWTUV3ksVHBanUT196G1FK2jXbzGeoI1VB6U98eyWVYP7rEdXCfs4sB6+l5M2PeA1tilwX2SbcL1e261IQg1+qq1ajqy+2C0UY9Xt5Y/Vfdt4UGtU7SO6prWS4GhA1LxzAH9kJM76+B1KfXFj0ULTquTqP4+NAd0lB/oqACWXkeD0shKzMGJrXIKKzLKEEwStq2BNMNyLc1nryzZM50RHw0FStM5S9rSe+L7Ic2YvXBNVic9a3q9zZmodQnKcu0fIdtU7Kwjo77KY+G/KXXWfB9aS9E62shrprgx5+bV7JIjV+RgtEeTsRPS2CzlEflgyS+yxDe5CnZeyGCUxTXVVXVkv3n2IiRR3RAnpuQV/wkEZfkLA3NG9q1iZx28JqW+ymOhv2l11nwfmgM6yg90VAAdMHa0lddM0anGJx6FSS7cIHh4ZQsnpg7ukaZHoihuutQ3LqKI4ILsCW7KZXsqi6FcS++I74dUIqd/RXXS3tuM6zlJUVBUlmytsCIqd9aRUV/KsVDBKXWmFB3P21qK1pEVMn++nJgalLZY4QNfqwcmyDvBn+kp+93QJvyMl4INo8MPw0xJxKQtvYcXo/2QuXxytVJRnbzL9npCPgGqICrLBrcWFmHlzjp4RUp9lcfCf1PqrPk+NAd0lB/oqACWRkfKMbtKpLHLtiZ0Ubt+RPqndo2MjHCTwq+e4IREQKwWabSpJT44cWaLXzpV2izdVhRe8bqZA3JeSx6JelxL74jrQRqYGU5VVCctg70XSCyxMSjLXu8e2DCwsTQtt/RW7qwjo76UY6GCU+qs+T60lgJ0NF2y2AZ3A7ezM8P2naB29UhZ3qET5XKZj5YlNbNtcGAz91TJKJs02hb6iN3SlLThdgu6rpme2DEyslV6t8TQrqV38GKkB39RUFmdmMP2v0qSdjoqq8ypqYnSBFmBdVS5sw7eMKW+lGOhglPqrPk+NAd0lB/oqACWVEfaPMsJNiVdLba/LJxZJ0NLtt+KN+BrS9sMn9FOf7t0jIOiA5wS5Wx0bQLn8aFEto5ktIYXU6qTxk16g7jp49bElyVb2wGuYb6xNSW3I6O+lGPhgivrrPk+tJYCdOTQoFH6HvdJe2vXiHjlmLUvT1rbYdYWt9HaDO8bHqbWWZf4Hq0NcknAPh4u7+JvgeaRjl7X0jt4MdKD1DLtErHq5L21gzcsH+5D82WJVU7yN2zowDTVmLKzDn4lpb6UY6GCU+qs+T40B3SUH+ioAJZURxKOENwkGbnktO1tqCMOeewpKu0Vn6O2GXbTmmSpLGemnLzWDo6DtEaqkc0ydWTbS/qbUp00kz4a4RbBl8Wlu7FwJiW3I6O+lGPhgivrrPk+tJYCdaTNs7SvMxIG2NhOjll1xG+sHi0nXQdX1NbL0rR8XSoCUStsCS5dS+/gxUgP9g2kREp1EnXxRyvdiPyl8mXJ1zV421NyO3jLlPpSjoULrqwzpeh43uaAjvIDHRXA0uiIbwwknDmk44bRFaGO+BQt8+2jI7YPb0jPam8dWbKekad2hzdZjozIDDtOBpsJcT1ITl5MqU56zrhfUQIUboZ8Wby1thZCSm5HRn0Zx1JZZ833obUUqCPXXIuJGJ37HOqIfXLQJvloWb7SDPumXpasg6S7L/hkCb60EQv4ll7hxUgP8i5z2SnVyd5xh5//MvqyOHQNP/WU3A7OklJfyrFwwZV11nwfmgM6yg90VAAdMJWB0Eljrts91FEwsUGg9ipulnCJk1ZHg1uDZ5byinim5H7IOc7tRkp10vzwYz+5RGlbfFm8ddgypOVWMurLOpaKOmu+D62lAB1NWZn6B3rbgTfChsQxHSWPllb5RlsIlmJvw+ZSaU+5zNnlXYtnSupBpnKyWFKqk1I5wuJYSAzjy+KLJx32FFJyO3gxpb6MY6mss+b70BzQUX6gowLoDB3JeUpnqnaGBzqyYUTEDG0Sb4bDJU6KjuSZ/R5eE8+U3A8JQk6mV2fbya129rh0kriypE8liMZScyvp9WUeS7LO2u9DaylAR1GzrGh45Fr2QEfJo61shoOl6G0Y2hfNtatHR/Ip0OVEWnUSjprhgUH+BCQEdWVJfVU+9ehTzqov81iSddZ+H5oDOsoPdFQAnaEj7pNg9EbUQEcy5j+lnXvl8jEe1s1qwiMdqY1OlcvSPvFLybY7vh+yA/vSq7N9LAfthHQZMnBlydZBdJSaW0mvL/NYknXWfh9aSzt0JGMwZFaNiQMdyZEFcHdeVhMevQ2D0po76tCRTH2hTyGtOivLbfZKSb6LriwZoQx0lJpb4eXK+jKPJVln7fehOaCj/EBHBdAROpJGl5GbhuKddbx92DNC+PZHCJc4yQ2FNHS7eORGJn/zS/FMif2wd6zwnZMp1dmes+lBHku2TYsvi2UXjiKk5rZk1Jd5LMk6a74PraUNOvJ373ADTQQ6Evke0849fehPVhMevQ3yWZ/YRhnY9lJdsu3mRb8fcgMuz6NIq84We0wUYkeDXFkSsgQfRWpuhV+qrC/zWJJ11n4fmgM6yg90VACdoCMZRDgpCrEThkRHesb5wZOIeDMcLnGSdcTBkR3jr0tHa7ntt9ONU6rThnIzF2r3z5cll+NB+5Oa25JRX+axJOus+T60ljboiJ0xxS20PlZUjlinKfI3IiHfrCY8ehv4zbKxan1TGeQbJ1dAKdXZD3dGHl5kv0q+LN5nayhLam4LZ0mpL/NYknXWfB+aAzrKD3RUAJ2gI5mpu8XeGSodN3LG2fPRdnDEz77MJtzpSMZ0bCsu08c5kWy7g/3Yarv2ZLpxSnXacyb9a3Z6ry9LZGdnPq0/QY1qam5LRn2Zx5Kss+b70FqK15FEiLtkEovt3pKRFT1CaZbdvWOWzCbcvQ3yjtnJdvXoaEg+PNs/nFKd9pzJLEYbqPuy5GLCTk4f4E7T1NwW3jKlvsxjSdZZ831oDugoP9BRASyNjvT+/JLctig3oFCoIBeP0icvDcz07pEd1BJLD8e0Pf3W7yrzhXRmE+50JNfJfP0qnV1VdES7sMc+DUBrTquOkAaI0JbFl2X7m45tHh7ZN8NNRHpuIaO+7GNJ1FnzfWgthevIhsQ6vU6MKyMmOqtZIqUJ23U7MDRSNaJwb4PoSC5iNvN7JdUl225e5Bc2jJSkYp09k1KdlsslaSTkyxKFnuFPYH2Zdz01t0W2pL+J+qofS1BnzfehOaCj/EBHBbA0OvLw8Imc3XRyi5Zs15ekCG6ydRJ42U7f5fMw3gyHS5zkPBITTR2Y0Mr4pXim5H7QFbqe85XVEdIqEDbiCsoShSq8bWpuIaO+7GNJ1FnzfWgtBejIM82DejYk1r/Sb2ndfqI8tVtlZU6VtoyM7DpmdVW9Cee3gd+X6W3DGyS6yNZRyLSOVVVWR3Bowmic7suyX1T+JOh/imLScwv8QojWl3ksyTprvg/NAR3lBzoqgCXWEZ1W0gpJd400uNJTrk2vqIV/sDuCz8PsJpyTnGej85mZ4jaKX0q23fH9mPHPIK2sjpALb0Jbmqis9faaV2C1puYWMurLPpZEnTXfh9ZSpI64CR/mz4UtZBtc6fqSrkmCD8lO9nBwz1VmE+7fBtsb5qhHRyfdEzUqqyN0IrpbjMoShSr8YmpuQVc5XH2Zx5Kss+b70BzQUX6gowJou45s95mDmnAJMCQmsledfMoN88A9Ydva3V4u9pd+sptwTkonmPsVomNDrAFek2y7w/0o7+DrdUeyOsa2lNLCEUFZOiJAgtFJ6mm5mYz6so8lUSdR/X1oLS3WUVzG9BHLBYdISNp2+Z0GvfvMPvx0WyB6mW+X2YT7t8ELe5rnwqTqKLYfZ/gxg0pFdYQU7PvNwrKiT8J2vqXlFjLqyzyWZJ0134fmgI7yAx0VQNt1NLRNRo0sPHa0mf7quPAIJXfblnrrnnL5yA49fYd3lI6Uy+UDO/RM30o5o6Y+WOKy7DZDuw6Wj5XIdrTKlh7P5PdjS+I3PYlkdYT8ZO0uvxyWtWH3gXL5oP9x2LTcTFZ9mceSrJOo/j60lBbraBvtdgR9xNzPZWcwyKNzz8gRbRSf6DNhhw6oXU7ukxU8HXHKRx7BEt9uNC23eA2VpL/uyHoeeJPS45nC/ZjYFf8cktUxe7i4M+7usbCsDcfkeuekPrM1NTeTUV/msSTrJKq/D80BHeUHOiqAtusIdAUt1lHdbPTPEGLWJ38AvCZrc/xkd2PVDdvfP4lofGfrptVFQ0f5gY4KADoCaSyVjkA7gI7yAx0VAHQE0oCOehnoKD/QUQFARyAN6KiXgY7yAx0VAHQE0oCOehnoKD/QUQFARyAN6KiXgY7yAx0VAHQE0oCOehnoKD/QUQFARyAN6KiXgY7yAx0VAHQE0oCOehnoKD/QUQFARyAN6KiXgY7yAx0VAHQE0oCOehnoKD/QUQFARyAN6KiXgY7yAx0VAHQE0oCOehnoKD/QUQFARyAN6KiXgY7yAx0VAHQE0oCOepm26mi4bKLfOewdoKMCgI7+1f/z//1vmgQe6KiXaVhHW/VXm8rliR3yU5kNID9wKz+KWT8jB7mug7GqhidkB3L+1FPLgI4KADqCjtKAjnqZhnUU/iStOdHYby8d4DxlXaiTE1KRmQl85H7rN/h55CUFOiqA3tbRFv1t2GoUoaO17vdtuxboqJdpWEfWBJ4D8R8erM5WyaELdSK1EAd1mZBiGF1eaqCjAuhpHQ3PmG2azKYIHW01MwX9aHi76FAdDZ4xmzXZnZQajRMKIa+OzHTtyzzP0ES5fLCB7Rmtxszoj78T/HP2gi4vNYXq6PmCJvqMntbRbjOjl3EbS8fK+0qpikjoaHh3idmca+x1cMbs0mSX0qE62mVMTc8PbtnVYOPXNI1XtdmYRsdeCqApHUkv2YbStDjhTCPxUeNwFdI55y8n1/KSKElXLDVF6uj5rLmnyYa4MfebprqUXtbR4JQ5JonNZ/hrTNdaJVn8J7P1P5h//ncDA//m/zLmv/8fcR1N2E2NOZGnv+2gOampLqVDdXRSgouSiWIkEpT9VInBaf7AR4x+7C1iB30ZDkRX6cTuGWP2cKKJqqbMPk0tIc3riLxgx3Xk+AuDa5jgs9bHkvSZmxNycuqKpaZIHT005k/6sxDw3L5SHWNuaaphHkstuuAWPRXLBdHLOtqqF1d8YVWeOMLfbln+J2P++f/+L/9uYPB/mP/+n/6bMTEd0QVYuWxHTWsGOCPlckYQRVU3Nt7baXSmjii22EF/tpmoTedZxJpkO1ArSe99SzvE5MsQfhfW8wppnJuo6oCZiqltScijo4HBY7zkj2LznvK0OXlwt4RLgwfK5YPumz9ypFym922I1vnBps37aOszE356XCx3BNcwwQbywTCfvTsCHQ3tOMLzK04cc1eNwwfLZbpIGdl30pw66C8lKzYjRibKM+aUTNM7pqFqYjdsWWuPUIiWGYwXqaNr5ir9/5iP1jFnX6lO8zq6q9X8cps9uPiHLjrcy46Hkqn19LKODmpf3UYjXdeDB4yZ5uV/Mv/8f/Lffy/X1f++Qkf8Z3gfvem1jELNYsa008GZRgdvO4zO1BE1R9w8DAVtIwUqxnWYUftFn8fQnomWji+dMVNTsWB3n5nWHWiiKlLm0k9zyaWjgQ28pEcxyOeJcIrPFjG1M/RJXitniet0G/J9D3bidyJ3BK+akMJ22xX0tpmZ4UhHe/hzt+g9TVzNhARRjF6uVG42MCw2dUiQV7EbUtZa6VPJ/LAK1NGCMfP0J6ajX+xL1WleR3NajTGX79MidNRyqKWyPSmD+kUcpFaEk/9ku3d00CgxdqQ6om8yXVPZVCbZOmIVLv1FcA46Ukf0Adqm7oRXEDdTfoDhpJku4E0/Y85QcxU1l7QXtOwb50Y5Y45oaunIp6MBihq0wR/W2dcCm1macBtjyGgPaSfS0XAwX5wvKypye3jFhMSl5DOGRXTM9qTz4hZOOOxZztUckT0TJJxN2SyaEiHwUVTuBpd1kG0afbcqKFBHt415wn+1Z2xhgVbU5ZlcOlpc/HPh0VU65D9o2XbOzZpZ+es666LlguhhHdF3MfFdom8i60N1NPg//t9/TX+ydDSssRSxPjn6vH5EYvgqOnIdhd1KR+pI++okDNJ3t2SoidN7LCloKqKlJx3RdXoU7NKnTvFB0zra0wGzLnPqiEfT7IWBhBUTW7fKX44g6SLOfTayFbXukY5sbDQtQuDLiYrcHnnB3kAr554EwVsjHXGZU+VSybrFKyRAikvZTPZqYnNJvFkuc/BTuRtBWUsRHc2aXzVleXrFXHmq6ark1BHx/KYxNyXF/JIIypLLLaeHdUTfroRG6CooiI5q6Ihv/aN2Y2i3XCXNlPS6e9psGTwoX1N79UTsoOQpd1l+zMZUdGnY1b11Hakj+kRtoLuRGyuhbCZOuMsGvf4Y3F2yTdju0tDA0JZ9R+xiygpicKR0ZGK3hj6ywciR8r7YSAbpiMKxKNg9SZ+wNs6uKmJoa6lctvPs4sUMjuyeKJd2uA5FduqSX6jk1JEEHby4ni0h/V10+SURCX0y7qKAHcDRqteRdPJNsxS2nOEIqjK3h5cnbHwlURhLhD4Br6ONhseJCMkpZahCDmxcazvs+DNN2YzjJy5ykCM1cU3KbmhZp7btOJZ56VCcjhZMYl4dKaK+GXP5dcSV87iVBTpqHcdcr4GDrnFlALa+zjoSz0zYv6A9d3RmSedzyfZLMLsHyE96FUVnkG0oE5d73UZH6uhE8NlYBdFV8zZqfawTyFbceNBHIJ8v/R1Zb/th7EhCxQr6Sug1xRH5pvAGvvH0sI6oObRxmTSq25yOXFUkGf2e8FBHrJj17gEDOgjCr7ral4ycOhKv8CJfl+mcBn4j+aZVPitE3UPcyvO54N8KOW/seTLElkjJ7eAtKS+/d1O8zAl63etowFuC33fJaRUin5xsJhVVbsb7J18XfliErEnZDVvWMbsyg+J0dM+Yx5oUHhkfLT27d/Pq1Zv3ntmlG3NPFp/enbty/Z7GTqyjp/Nzs9fv8US8O3NeTvfm7tD/N+f+WHz0q/k1VrrF6+i5MZdtioCOWofoJIC7iOVaSXU08B/577/6D6lTGaTZIKGMmFM76Ip8M31RbXtE10xmeveWfSMDG0b20LXUyMjIEF/xyjdbHtBlr8emunvwqCN1NOObRGpwpE0ZMWYt/bOf5xl7BeAcwe0+aYunUdkr74oVA5tnzPS+bbupnTzDHxbnpDrKZqu8qrCOSHtuIPEAX/IndUTX1TPl0kFq6+iiPCxmZJrnJ+/jSEG/IZS31phk4bRKR4FFWAF8XNJbx6eAhBqc8DriKwGRi5KS28FZSEe7+C+VIZMa6G+kIw+LSvoNpRr7adDpGF0+WPxmfNuUfHW4bAnjUnZDyqpxa1VxOrphTNg192zWXJbpbouLj3/hHTNm1grFmIWHV2TFLzzeIzp6PCsrrj0Rxah4nl021+XlB6Q6O08igdfRU8prUwR01DKG/TAofZ1LpdKBGTNjr3qdjv7t/zT/9T/9z3/+b+k6oosmuooddFGPmxdBn+a066Chb62OHZF87Jf3lDvh6Pvv+2e6kE7UEbWCrsmid16EUuJWUSc4ODcEf+1W1DrJ1W/FCmqJzkjvHzVNvF422ENfndiFBOvI+48v+ulrkdDRIH3+3PIO7uanrIXFnDQz0i5uIFNF3xWbWDpy6kg66/ij4ACoLLeNy/AMR6wyt4SDIm7a5YrM64j/hoN7KbkdvCkVQuew/GXH8ScW19HakZGtMgYU6cie4KJLe44T8c3YSxKdsoUkYk3ZDSkr7rMKitMROUdTwm3vj8ckovsLC/cum8viK7KPMXPz89eMji2Rly6ba/N3SUk3FhcfGHOX10rqgbx8k7a/czWl58/r6I4xHEhZoKOWQY2CfP8Y+RqbU9xiEE5HA/+Gvn7/+X//j2k64jmlcsXsOKVyo3L8tXOkIzpf5EygyzjtiTniX+tKOlFH1NK5CGNIP9wyN1ZH7LWA+zScI9gKtnmiz4KtU7GCcujVxkn5dHkDGUSIITqiuu0HS+airAkdqc4I3pGgmB1+pjI1kdp7Sw1i9evu4smpIwla6P0XW4Twi9wtxpdkHIbIx+U8ISFOMKCamlvhRXYa+4GcxmVyzkBHIxNcgSWpI/4A9Byv2IzNNj2xeYS76OT7krYbQVmZFKajZ/FZ3QsUrug9sNfMVbEOaUmUQTt5WaZcUzzF07Nlxe/09wn56Oni88tmltcuLl43l7kIPirWUgqqo6fkvl+iO26ho5ZBDQh/oYUd5TJfHplTLq7Jhk6AcpnPAjMdze0lyno6hvfhuwZQTjVZ7ccxeCBD7deVdKKO6KJcXc9tOl9589CRt8qEXl87R9Bf3Xy3/ZwqVhzxV+T0aVFxtMHJ8BLEIjrisFdeOiWtWkJHx2IzzINiytE0OroatyvJhUsdN+fUkTyjm95KiYQCJHaVFzfa1+TCzbXt0oUW2D41t8LLfPbKPLhtkpPPxkhHUosjW0eVm8kUBkXah7TdWFIdPYmGiojnV32X2yNjHtnUDa8Xu+LpZesJtZHc1UqvUOwkU7KfXbaz5Wj7lH46gXSkXJU55hboqGXQ18xeIDk20gXRjPTNVENMxETTqzaOUBxvGyU+UbzkAh3xJS+3Oy6GCucidyWdqCN6uzUGkbeX3noSFLXsqpkpjZ2cI9xfycifRcUKiolGLNTO0Tcj2iDEfvJkMG5c6VvFfxI6OhNrS4NidDiL8dMCKRG70FkC8ulomLu3+ApAAgvt5yJ2i2Wled8jUYgdPXVtu3ShRSdPem7FbSrzIY5xJCO1ex3JFHBT3sPnZRUdpWwW3PtUljM8bTeCsjIpTEcU+0RTrVkstzVJkYsGLvftzUHRhtftcJOfWUfm+k0CK1n+zRixVBRnVeB1JFGWAzpqGXRaJKda07dTvpLVIB3Rl3KLbzCG9rjvb1Ud0WUcNZV0xrkJVHQ6+k69LqRDdeT78zdKe7PP2v8Ufzb03vvGSGwQWYEy8ksVK6RZdegcBLtBiNURtVr83Tlig6SEjuJjIkExwQv05bM9g/TNcN+apSKfjsinpBpuy/kNDARj4fPlFH0mrmvVte2D/DfUdmpuC28qL8lsPN5Q3lGvI+6BOyP+4svHTB2lbMYJ7sCb9o8NStmNoKxMCtMRSSQavfnjspl1CrlursxbbtiwyNtncd6GUH4FlcFx0C/mCmee0067aPsKSEcLv8+T1TS8skBHLYN0FLYRAl0j1eq2p6+rpoShk3RulUojIyer64gu4+hMo5bGXePRmbPUjU4eOlRHkS2mOe44aXvfqH1cywMa9rN1NoisQBlTdUSNkjy5jDlIlgk8EqBxMTWMazkwkBrjOiJVuUEtJiomfIEuWGwDSN+M2n3GxZJLR9vE4vI28HQAP1/IIR1kEiPZ6zHftst1nZ96nZHbwlvKeSaZGYksnY7oHXa6qKajlM14lWwekbIbQVmZtEdH13wH3eIiPzHBU6EjHkRK6siufuoKrK4j/kNR1Wwwqw86ahnrU+78oai/VkuQ0BG1dLaDKBo7StURF72eWi7/VadylrrRyUMn6oiauOi9p5ZpaEhb+M0cNh1xV97OBu6vfE7ctlSsmIpdrIcbhKiOtnAXFIU40i7GdUQX2BmddTPRF6LkOuvomxH2Sy0FOXS0XuIVHRKT+QAuynCIibhzTO908G27bM3a51CR8qfmtvAr8lnL4xgI+/46HUkVcl4OV+usS9mMJwXOxPtKU3YjKCuTwnQUdtbdDzvuZn10ND8vNxbFdMRRTVJHT2SG3W9u9Km2jrigyIXQUeugK9PwJgeBTqUGo6OTrpAMHfmvMTWJpY1BbxJ9/4MLwa6jE3VEb290YcvvPbUt8nFSm3VkcNo5wNkgsgJtm6qjE/qZOgKPBKiOBqfMlP/JkoSO/PR+ISjmVDR9mVo9m+iAb0ZTOpqhGNLeREzY77080MDsYc2u31F2lnW92xoY+rZdBo9MubSFR3LoOi49t8Av2PNMZOGuCZ2O6DqELjbpXdzImsnUUcpm8hJxhuJh/anolN0IysqkMB0FUxmeXA6fDuT63DyRXu7YX6RI6oiyXH5G/12VlfXo6PllO0vCAh21Djor7OWZN9DamazOgYiEjtydl4MyPkGEOiIFRTOFpsyZPf7n/jhjeB9F19GJOqLWJfr4aGFin4t/y2aaPgu96HU2iKyQpaNkt1m0QYjqiANlymDb4YSO6DInmEYZFHPEvzA84yKoDvhmNKWjAL2BT4eRPNpV4Kaz6dhp1LbTu+HhDys1t8DL9jyTu2mdwJ2OZGSKQiYVX5aO0jaTIhz2Z6wqd2NJdfQ0muh9PfZ0oFt+KoMS6YVsEguXnI74hiPSm6Tr0hGLLaoSOmodfkLtiZNb5WvHT4SxV1lVSOjohP1+DlPWSh3R5V7USbOHztJotIpay2hCeBfSiToi4wc3kFJoo0NHciNM2QcozgaRFbJ0RJ9f2V6xWAKPBDgdycW9ne2d1BGFabagtWXyW1AM5TlpAzi6yre6pKh9yb8ZDetIu8yU6Fe+4r/WoKulj8z31QVtu/5yHyPXbam5BV625xk/ht+/Y15HG/0OcRGZOkrZbDi6D4mQ70/lbiypjhZnnRpIJuHPHN1LzHsjvVy2vXDuUQoVOqJgZ46y6dztenT0B57KUAzkB3tlSifBdHligkRTObmhgoSO6Is5c7B0kEKfFB3xKOjJA6fsZDq5y8/33VE7pE1ld9KROqJmw0efPBbj328xhftcnA0iK6h9KlZwT9Ap/hn6DbtO8SzMwCMB7pPn75GLhhM64i/CiS0jIwdm+OIlLIauiU5u27B+G+XV714nfDMa1pF2mRHT5VLojYEtrmvOnPKXetI15j8PHq5xkZJ8aMQxLSMtN8NrdF6sKEg/Z07bKxJ+ahcxvY3sbmUVVMPr7BTXis2GeN94Wvc+GznZqCu5G+EuZ1GcjnTWNv9EuXs6kEDLs/ZhQIvPZT3t5BW+seg55ZAJDxU64ojqqu/78y8/ujIbTqAjvI4Wfw2emJepo8oCWkMP64gu0uw3esRdlE3vCq+F00noSCP5mW3b0nS0Wa6+dG43W8+XT+ddN98F25k68hcYjDw72tmJGxnXfDgbVNinYsXAUHRdzIoIPRLhdcT3ZOoAR1JHG9ygCv96aFhMdOU9EQUL/qJlqWhYRwMb7P1ZaefPxs18v86WYOhniDeN5gtsDBYGR3aVStuCbStzM+uDuijpBMgFuy037i7t5o4L2tQ6JaiGs2sysRmfzvr0fek6dB9FYjfCXc6gOB3dUSH8RraZc9wgQ92ncOjOw4WFh7evSNREi2SYR/NX3aMUKnVEiaj3zb8cPXfIEemIQjIfQ2XqqLKA1tDDOhqY8v0363eVygdKm6NL62w2lxL9eRtKEwe2rh1YW7LB+66S+6Iz60sTB3foebM1vNHpVCG/BNc+OlJHZKDgWoAuHPz7vXsmep7C8IzOptK/cmHCzU7FCmJzmTtvpo/JhxhtEKI/GUKN4ZSv/qT2/PgMQwdYSGfkZ0jixezgGs5EP4494Xuxlo7GddQr8PWjTjeSUanmrwyK09FD/YEJedyph8OgB/aBqYQYg/7M28VrdsJDpY7IIDybweJfppgp3u0X6CiczJCpo8oCWkMv6+hAfHi0aCaC6tbHGs4upCN1RIFKAZIfqnUdXC+ZX7bh8DpoOnaP0tLQtzqSbjw9MyU6qucKNZ3idERCkO61P29oZCTI+M/T+Tnyy7U79udYWS+Prxv9PQni+pxK4uncnN6uRCHWDZsKXr5pJ+IF3J/zW93Xuoi7c+6JEBa/XFlAa+hlHW0Iw5XCGYp+/qD7++o6VEex3rruhCK8GoMSbaBvdWSHtY6UNo/YX9XMMamkOB1xYx88OC4bH+1UQW+QjfH0ch0Zq5G7gCx6WUfRTUPtYFc48HCq8hbc7qIzdTQ80+VBJ8fQOjlvKelfHdmn2DlONR8cFamjR3WOzNSjI31OUIw7sUcvNEHuArLoaR1taWdvHV1t+SlH62v+Wkqn05k6osa8u4fkOIZOGZ5qN/2rIx5ldMxM2DkQzVGgjsgheuNqderQ0UL0BFYPxTYVAVND5C4gk57W0cCJ9p37G/S+BmFH2g8VdBUdqiN6l7u7t25X9IsTS0gf62hgcNuxctmcLE/szvdBFKmj+/UNzdSho5v6GxMhd8InhjdD7gIy6W0dtZHB9Fmw3UqH6mhga6kDWvMcbCx1gk77WUetokgdPZ+1c+tqUFtHz/SHkGL8sVDRfdcYuQvIBDoCaXSqjkArgI7yU6SOFp8suMnZ1bg3X+te1Kfz83rjbHcAHYE0oKNeBjrKT6E66leq6wj0L/ol8Ohq0BPohxoCHTUEdFQA1XT0d/3qgj7kH/ol8ODb0ENUfLoEdNQQ0FEBVNMRAKBvgI4aAjoqAOgIAEBARw0BHRUAdAQAIKCjhoCOCgA6AgAQ0FFDQEcFAB0BAAjoqCGgowKAjgAABHTUENBRAUBHAAACOmoI6KgAoCMAAAEdNQR01Aw1nnYHHQEACOioIRrX0Y253zTVASzNzvwW/VJ6KtARAICAjhqiHh09W1gIfqbOPYB7/lbs14IWfnuYeGDqwsL8vRpPPq3M1CD1/HRf63lqTFULVtPRX/WJIgCAXuNvepZ7oKOGqEdH10z4W6xqgD9M9KMPz279Yn8K8NfHumZx8ZFdNZv5ExNpmRpmaXS0OGd+1VQq1XSk31sAQO+hZ7kHOmqIOnRE4jHmgS54Azwx5posLy4+nhWtCM4+93nhV/6v4nfzLGmZGmeJdPSg+g8LVteRvvMAgN4COspJHTq6ay4bc10XIgM8uqctMpvn1sOni08f3aKU/YXVPy6bK4/4760MHaVlaoIl0tGzy+auJtOAjgDoQ6CjnNSho1lza84YP3qUNMBTkpULbx5QWoaL5n089WfqJLTUTE2wRDpavGFmNZUGdARAHwId5aS2jhaM+f23oEMtaYA7YWcbBT03+O8NY6pOUUjN1ARLpaOH9KZoMgXoCIA+BDrKSW0d3TKzzymYcQNF3gC35mRmHb0UzHp+TpEO9+FdN6baBIX0TIs35p4sPr07d+X6PR+LPbt38+rVm/d045tzfyw+vXf9l+v3NObinXk6PzfrVyz+eXdudnbutqudczz61U6XkNzzv87OceD2/P7c5bl5vxPPH9yZuzJ3100WjFd0Z85L797cHf7z1Bj5mw50BEAfAh3lpKaOyBW3RS9u7N7pSP9SnBA2zLdtL93d6uNB6ZmoyIWHVwzzi/bePdbZd7NWL7SdToG49kRX3IqteE47atHyKcc9Xpy36ce2+FuLT65J4qotZvHxVVk05roVYbyiOS/XZ5d1FO2ymZO/qUBHAPQh0FFOauqIzLEgU8nc2H1CR9TYh/cf0YbcC/cHBTw3g5uVEqRn4iKNmZuf55nlkvkxiej+wsI9CqZk2ZgbFKfN3yVT2O49EldsxQIJhTLcJevYKRS0G1Tknat8nxC9dtn8Os9zJ+7/YmZvz5PrbDG/8+7OP7xLUpqVMCteUXT0lLJjYr+YK/I3FegIgD4EOspJTR1dl9uLKEZyY/cJHVHjHs6d+91wMCXCMVfms4SUkYnyXBZN3SBh8N9r5qrTkkQ7vAGP2TwhTaif4iue3rJh1R+Rr5xAoo3JsHbnn5F+JDy6ZucBSnAlFbtNbbnR0V83l22vIAVMGlilAB0B0IdARzmppaOnOqWZYgwVSEJHiXbZe+A3CjjM5TvpQsrIRDnEClwrS/CRWyY/iQZUEtIZKK9UrHBc1cEuKpL76QS/MUVF9hju21xR3yGLJ6Uip89nl10fJL0f2YNj0BEAfQh0lJNaOqIGW+INMoNtwamljumImvbQLH86HS0+oRabIqQwCvJkZIoGnChKIZHdNsbGIm43/E7Q7shjeipWOOb0mRHGXNMigo0p+LKJBRsM0Z46bZJ4Uiqi7WT5Nz+hjjSVemQCdARAHwId5aSWjn41V+Xv8yvuQUGupda/FOjotAPh92CSwhMepUlttTMyeQnwfUsUfFw3V+YtJBAOY/wG5AcJeipWCI8XFq55HbkigzTtl01orl+ju4g0XkqW+4s9+jm/IW0Xjn7FgY4A6EOgo5zU0BHFLdrKUxNu21/XUutf14+lPNDBF8sf14yZTbkBKSNT5A7SEdXmprsJdero95vcS0g0oKPZaBo7RUO8K8ly7f4E07tJR25IqhLoCIA+BDrKSQ0dUTMcYac4u5Za/9IWYS/ZHesNx7PZ1PtFMzJF7qANKNusj47m5+UGoKQlKleQacyvc3NzVxrR0eXoiagUqPGeJct9It2Jv0UDRner3QcLHQHQh0BHOamhI73tx+ImW9uWWv9SZBM9z27xOekn9nBRMk0QLTkyMkXuoGy0JuobU5KWqFhxjwqWUalo7MgVGaSTOnI9ewQZh+O2iorm+L7dOe25JKKpHSlARwD0IdBRTqrriBrj2wsKNcAS0biWWv8+vRzNA5C+Lp3JoKR3amVkitwxJ5MYSBt+HoJQYYnkijk3wtWQjm6oaYnbdscqKuIbjihEkjSTGP2KAx0B0IdARzmpriNqnH2s89jYLi3XUru/FMjcdNJ4QtFUvJW+nt5sp2eiAMx2hj21v15BsU48tKqwRHLFZRe//NqIju76ep7r05AqKqIX5mh3/HxA2ue4KUOgIwD6EOgoJ1V19PxK1DslLTC7ybXU7i9HOnN2usIfVzTOeXRFnyFHwZFo4dGV2dhQS1omLtJODOe7UXkw6fmsmVWZPY/35mXp6Jr6k3TXgI6eXjFXxIPPKASU/ayoiPNcDX50L3iIXyXQEQB9CHSUk6o6euTaYmHeLrmW2rfY/Ji5K7fm52/xRLjr4pjfac3teXnaj413KMwKSiJSMnGRZKlbj+Zp3S+iM7LZ5TsPFxYe3r4ij4irsERyBcU5vz548pCfXNeAjqSe27894qcG2TufKiriRDD/gsK3qNwKoCMA+hDoKCdVdUSxgu+rk0nf3MS7hjhqkJ/Ir74K+qsRz+d02czaeXYkgMSMhspMUqRO5bumYzkPyFoWqczXmaWj5/bJqOb6/YZ0tHiPPCjYxcqKJDiMnkL+sNo8b+gIgH4EOspJVR3dmpNHyTluzfF0uOtzVizuL/H8wfzcL2bu9v1IXo/vzF02V+fu6wBLXGxCSiaWwOPrJvi5CP71CPLAtTt2Gpuv8+ncnHiuYsXi/bkrszcfLC7ob0IEexmlH8iBED7X4p/zc7NX5ubdPO7KcnnOXTRL42b4AxkVQEcA9CHQUU6q6qhlPL0cBCnZhKFMx0Fxm38Ow3P3OxPpQEcA9CHQUU7ao6M7Zjaa151NR+tInxMk8LRvTaYBHQHQh0BHOWmLjig4yn7AW0An62hBfwRDuK4/i5QBdARAHwId5aQtOrpT9adhIzpZR+FjGJ7pr25kAR0B0IdARzlpi47+WKgWS0R0sI7IQHaqHvMgeopDKtARAH0IdJSTtuioXu7NZz+WdIl5Oj8fPV3i2UL4a02VQEcA9CHQUU46Ske9AnQEQB8CHeUEOioA6AiAPgQ6ygl0VADQEQB9CHSUE+ioAKCjLmbopDHTW8NEW1i7bfdGTbaWwgoGFUBHOYGOCgA6KojBLSViy5AuFsJafnRhKUzUzYYRywZdboANXNkeXaiXeuprqmDQHNBRTqCjAoCOCmHDQW5amYNNNPj10ryODnAGy5mDm3VlneziXCd1oU7qqq+ZgkGTQEc5gY4KADoqgqD1NaaR1n5wW6m0bVAXatK8jk5xBs+xtbq6LnZzlgatUVd9zRQMmgQ6ygl0VADQUesZPCKNrmNCV9fDVs4wogs1aV5HZzhDxEwjeaVPbZ8u1Eld9TVTMGgS6Cgn0FEBQEetpyRNrpk6Ujpykv42oqNtnLFdOiqVJsplThCNWGADRXCarJf66muiYNAk0FFOoKMCgI5azoYZbm9nbB/dSNkckER9tFVHkhqULjJjtshSUbS7PlAL6Cgn0FEBQEctR7rqZvyM5S0+tX5k19aRaGBocMS+sn5btDKmI7vB0JZS5Kd4EVk6Wjuyo6KeWDGBHgYGNk7xQjBmE8u+cSQa6BkaSTHl+s27R8L5g/HKlaz60vYtu87axwXqBTrKCXRUANBRqxmW4KiyM2q3tMLGTGt/FG9XHhg6IKtPDPOqYMB/t9tgZJqWdkiOiiJSdTR4QHbAnInVExZDhHoY2MILbsZFPPsgZ3PhHbtyZnBgKChqaIK3NeaYNWtF5Y6M+uL7pgWn1UnUdVygXqCjnEBHBQAdtRoJcGZELwHDJ3i15Zi8yAo5s0EFY6bWU4OraWZCNxiRJTFNehFJHW2MnHZMgpZkMUJMDwM8wqUCTWbn1t7qYGCAx31mYpVtcbuvB1xRuSOjvvi+uYJT6qz3uEC9QEc5gY4KADpqNRIvHNQFxzA3sR7pqOLmdDpafYRW2ct/gaID2cC299zeZhQhr/nEwNqgDCkzWYwlrocdvGRLTGaXo7HPexjiJB1YVJlMhVO4x6yyckdGffF9cwWn1FnvcYF6gY5yAh0VAHTUauQqPvlsAbkR6Uxp8y47B5zH8aXxJc6UbZu6YWBgT1kynyyXy9S6uw0I7o3KKoLbYp+Qgatp2nytTGHjW3ATxVjietjIS1Ocqsi+mf/auYES9pElosqOcWpqT6lExbGOKit3ZNQX3zdXcEqd9R4XqBfoKCfQUQFAR61GWt5EAylhxBkZn5dZ4FODrjmdpmZ8SCS0i1+V5leH5rW93T04sHGoShExHclWElgMsuQkruBVvhglrodh2YISldllIGdaes7YCNyH5iuTMaBT0ku3+4zbxXjljoz64vvmCk6ps97jAvUCHeUEOioA6KjVSK9S4kkMEtlIa6oDJ+u1OZ2WEELadQmoKnW02y5kFxHT0T76axvygT2UPOVe88UocT0MyCb0NyW79JzxHg3ygXkPcGWyS8GE7ZTcjoz64vvmC66ss97jAvUCHeUEOioA6KjVyBCPesPBPUzamtpH4VAj7htfTUrvVIWOTth0jSJ8grvPjsk28gQ4ngQQL0aJ60FGaHgxJbv0nPE8N0nwccUqky4+JSW3I6O++L75givrrPe4QL1ARzmBjgoAOmo1ErpIz1sEdzC5YEFCIXrdN74EJ9N1pBvUKMIneKuQ4WQxSlwP0hU2TYmU7NJzdoZe45BF5rv5ArmQMv11pOR2ZNQX3ze/VFlnvccF6gU6ygl0VADQUauRZ3nHbzuSGdyu4Za5yTpxzjWnnKyuo+pFuEQ4VVwIRmRixPUgT8oj16Vltz1nG60RZDgoVlkwQJSaW0mvL7Fv0VKyzrqPC9QLdJQT6KgAoKNWw2MbrmNJkc6pmEuoGQ2bU05W11H1IlzC9oJF8Izo1GY7rgcemeH607LbDrOSnQ0nfZCuQJmQEEznTs2tpNeX2LdoKVln3ccF6gU6ygl0VADQUasRo8RmOdvxJNfTJq9TGxs2p5ys0VlXtQif4K1CDRCpzXZMD/x8A2P4YQcp2W3P2SmxrL03NVaZfdaPJS23klFffN+ipYo6U4pOPS5QL9BRTqCjAoCOWs16biYTbSePJ9l2VUODjfHmlJORjnSyWry9rVqET/CDG0JDEKnNdkwPPJvaPlYhJbv2nK3nyei2Z84XGO4Sk5rbklFffN+CpWSd9R4XqBfoKCfQUQFARy1H5j/7hnL44B5tgO2z1uTCfyYx9sFJ0ZH0Uuk9tPH2tmoRPiEDV/HILLXZDvQwzLPWdLQrJbvuk/hB+uqiAmWXdNLGDrJLam5LRn3xfQuWknXWe1ygXqCjnEBHBQAdtRzbF2WObVk7MDRyYIZHfGQqnNxjNCSNsXtem2tOOSk6ktDq5ODAYMXUsapF+IRMErDPY6Ud2caTCVKbbdXD4MiOPew2Y/g21tTsaj9GIyFfoOzSDPtiwwnWRmpuS0Z98X0LlpJ11ntcoF6go5xARwUAHbUe/UUfB09AkEfbmPKeI9Iu8xMVYs0pJ0VHdgrZVHmGbJNob6sVEW0qW03v2bW5tOdE2viMImUETK+36yuzExKlEDqLLipQ5rTT3nJpvG1qbiGjvvi+hUuJOus9LlAv0FFOoKMCgI5az6BMrvOwZ+xP8ikSUMSaU06KjmwHmF1KtLfViog2jW1Vt45OqI1SshPSc0bYfrOgQAmPFAmS0nILGfXF9y1cStRZ73GBeoGOcgIdFQB0VAQbg+bX/hzCeh6Mt2hbHDannLQ62qC9VIkbk5gqRQSbboi2sqMtqc12uJE5sS2aj1CRndCeMzdrIShws+tTMyflKNNyCxn1xfctXErUWe9xgXqBjnICHRUAdFQIQ7sPSvN55oBvlEv2yd0n3QMbBo+Uy2V9tt0EJTWYGD7IcQD7JtzAkllEbNMd9rngplySB65WFkOM0DrLvq3RL68KiezMNtnSPRY2LHDYHuYxL5iU3ExGffF9iy3F62TqOS5QL9BRTqCjAoCOimN9oqGnqMl1ijVPfUWs119nbZKGsq9P7lHOyqtRYNF9BnSUk27Q0f25W8/pz+O5G3/Sn6c35x7K6s4FOgKgD4GOctINOrpizAL9uWXMPP15YMw1Wd25QEcA9CHQUU66QUfG6uiG1dF9Y+ZkdecCHQHQh0BHOekGHf02d0c6627clM66W9d/l9WdC3QEQB8CHeWkG3TUdUBHAPQh0FFOoKMCgI4A6EOgo5xARwUAHQHQh0BHOYGOCgA6AqAPgY5yAh0VAHQEQB8CHeUEOioA6AiAPgQ6ygl0VADQEQB9CHSUE+ioAKAjAPoQ6Cgn0FEBQEcA9CHQUU6gowKAjgDoQ6CjnEBHBQAdAdCHQEc5gY4KADoCoA+BjnICHRUAdARAHwId5QQ6KgDoCIA+BDrKCXRUANARAH0IdJQT6KgAoCMA+hDoKCfQUQFARwD0IdBRTqCjAoCOAOhDoKOcQEcFAB0B0IdARzmBjgoAOgKgD4GOcgIdFQB0BEAfAh3lBDoqAOgIgD4EOsoJdFQA0BEAfQh0lBPoqACgIwD6EOgoJ6Ij0Gr0y5jCvwAAehU9yz26GtQLdFQA+mVM4e/6tgMAeo1/6FnuweneGBVvIAAAAAAAAAAAAAAAAAAAAAAAAAAAAAAAAAAAAICl5q865RsAAABYMv6GG4cBAAB0AKSjFwAAAIAlBToCAADQAUBHAAAAOgDoCAAAQAcAHQEAAOgAoCMAAAAdAHQEAACgA4COAAAAdADQEQAAgA4AOgIAANABQEcAAAA6AOgIAABABwAdAQAA6ACgIwAAAB0AdAQAAKADgI4AAAB0ANARAACADgA6AgAA0AFARwAAADoA6AgAAEAHAB0BAADoAKAjAAAAHQB0BAAAoAOAjgAAAHQA0BEAAIAOADoCAADQAUBHAAAAOgDoCAAAQAcAHQEAAOgAoCMAAAAdAHQEimb1pk2bVmv6hRfW0dJKTTOv0PKmdbrAxDcHAPQL0BEomvPGmNOafmElLZijukC8xcvGvKKLBG9+UdMAgP4BOgJFw7rxOnqRlyZ1gfiKl435TBcJWdZ0nOXnzHZNNsnqsbEXNVkYyz87ukmTPcVO872mACgG6AgUDeslS0crL/KyMeeX64pqOnrPGJHJ8rC377VG/EIlvKfJlvJaEN3REY5psvUsf28s7Nisi9jb1TyvGfOaJgEoBOgIFA3rJUtH5AfLG7qimo6+N9/K38mgM2+soUayIB39GBxgsTraFAst6yN8u/Jw2nyhKQAKAToCRcN6ydLRUVr6nldFLR0vperoDWM+ksRk8DrpqIGusWJ09Arvsd+LGjpaN/ZRw8FKlKc5HaXbvVE+MRejGBaA1gMdgaLhxjpDR6u5r+6d0/Rf1NLxBqnt52faV9dxOtrLe+x9WkNHje2wJcqzfPtY0C9YH63S0bqCejoBUKAjUDTcWGfoaDstXFz+Ca97R1dl6+ic9tV1nI7OmS9OR6NfheqoGVqloxd+dB8AAIUAHYGiYb1k6IhaSvMVD5Ibc1hXZepok+ur6zQdvUG7QLvhfNq7OqLdaHgeBQD1Ax2BomG9pOtoNS9QMy69dW5EhdeltZ8UQ2ljmK6jF3cenpw8PKZ30C4fo9Smw5Nf2TzrPvpqcuw11dE7Yx/ZUIY20nkQ63hzomohy98amzw6Fk26UL4w57gjy91MJTpauXNycu877pDWjU1OTn7CPY3bx2jnvxgb4/lxsdLjFRMrt39GRfBLiTxu5gbtzeHJL1zfnRS2+r0vJj95y66ISOgorOmjMW/n7ZqMHWT8DaDLhp2yGoBCgI5A0bBeLlJ7LHzLS05HH/ErZAbprXMNI6fTdHTUGG3e03S0/DPJR+XZW5NICpt28rIU+46dT77X6mivm8gXTQz4QgqvXsi6H+U1Mxk5g1l+0ezlWX8XdTXr6A2+l9eY7+0Of2Rrv0htuiQYCvSC0pMVU8h1zq74rCKPhl7rZAYI8YmolQt7x9b6hR+Gs8R0FK+JjkjnydOVgcSn8YOMvwG09BX/BaAYoCNQNNK8xXA6YjdxAye9dW4lp9N0dN6c11Sajt6hxn/snZ1f2VZfmk6yzveT57kPjYeojo5R+03tNTWsZCF72y1toUHZaam+aiGvXTTnx956j8R1Ltbek+IoYCGzqkkoE9X07dgXJJTvecu3qPI3Nu08yju6d5Iiwe9JyxTUBKUnK+Y8Fw+PfUJueC2Zx+poEynu27Gxw1SJDOjQC7Rn3499RYeYCGFiOorXRHutHaD0FqUcZOwN4I/mR/kLQCFAR6BoxC8x1DzU2OmQC/fWGY0uOJmiI7p8d20hta/8oDuBGk7R0SuHbScWyUFUI2WrIJafMxc5HFrH1ZCOlp/XzkMOMKRv6xXbLFcrhDb+USIJejHW3h+VwmhTHefnTBc5mlhJMuGjO6z+Wif/B72LUenJimmPz8ma985zZ1wsj9URRWM2YqFj4EOQwnjNKxcTuozrKF4Tvan6qIVJO7cxcZDBLjL0/rn+RwBaD3QEioabtDiqI2pldYK39NZpI8/JFB2RMdzoDLWvIdpSK+fsZtyQ7pUVEmrYNvxFak+5yabYgIOQlVS9naBNUYKNSpSUQiis0FGZ7805mxCoRZfCaadsEZzJ9gXSLvORurt3LXEdudIdWjHtT6i8Sh3RIWlWql91aHvUuN8x/o7EdOSxNR3VvaZS+I1IHmRiFyma1b49AAoAOgJFQ02aOT+m7OUl1REPU9jBCOmt00abkynt5ybbYDJVdXTaBlHUkH7rggRqoFU2dNHPbTa1uhwMvWPO8zQEYjLRC5VSyFe+r5DkEIweOZNt986LWnA6QPr/sLkY3CsUU4sv3aEVU5YwDKnUEW3g9oGMQsmoVjpG27XmSNeRrYneiU94ifaeFZo8yMQuHsZzgkCRQEegaFgZaTPr1nHyqLWUDPbbK29OpbSf1HDa5j7evkYttfDapnO2LtduM9/6RlZ1tPKi7MIX5jBFGaQKWpZGWUkt5Hvzo/YPklGDRvl77e5afVEPMshEHqQ2neo4v9dHFZVqifAVfx+9YUxlnmAD+2JU2BsuTHKk6cjV5PotJ62WkweZ2EVaGb7ZALQW6AgUDevFN57UwDkdSQ9diG35JCmpGGQSHXXP0NG6vTrXTOoKG9Jz/lnUqiMugaKP02Y7iYg2I2HULMTOjlMiHZFTdbcoSpFCgkx0hLwlBVDGHNYIKUNH8YrPuwDSUpnH+lSwxxQVRmFkVR3Fa/rMaUd8nDzI2C7K8eh+AFAA0BEoGm7a0nQk8xdCbIeZJCUVgy767XS4DB1RQuafaZASNqS+H9DrSOaR0SYvUln0mnbZ1SjkvMxUZz6LOrBiTnXzH1wmKk4k9MphftUGYJVqYRIV+/5MS2WeaCCNj+mdsLAaOkrUZGcZkjBlR5MHGe4i8RV0BIoEOgJFw+1fio5kvCiODMJIihNxqN10D25I09FOKlVa1NOVJtFVhNMRvfoFOYlWU76VFD7ZYanqhaT+3I/eHmSRBwUFmWxnHbN67LyuTtVRsuIonhMq8wQb0IuUNSqsuo6SNdHfc8tf+FYvBZIHGb4BBJWEqQygOKAjUDTcUDsfcAOnOpJJDe/pUMUmfrS3jR84kaIjspdrKtN09L2b3pxikkk/McDpSIaTDrOE1tGaV9xUuGqF2PncSTi40CPgQ9Ap1y7Tt8FPO6zTYaFUHSUr/jY2eS8lD+2/zSAhCx1dVFh1HSVr4rLfoMy2xzF5kMEuMhTPugkUALQe6AgUDevFt3LUwKmOOK6IGr93/FaccPcVRWM0PCvbNdFpOvKDKSkm+czNNVtOxrBNNWV77bzY47T5asw9T7xGIRJVxIkm7ckhcPxGmU7bRptSwRRv0gb/2R7eL+tKT1ZMxeqEa6Eyjz8knkLBmo4Kq66jZE2c8YuPXNSTPMhgF5mLfk4IAAUAHYGi8aJhqIGzOqJW0w2nMMtlFJ31w389vq2XWdMaEKTp6JxGQJ9oXWFDStGPPK6HbaRNNd/FZO/p3GvOT7puwGqFvEgNubwYsvy89nIxtMDZ+Qi/59adqyOpLLeRFwU0Et294WdkB6UnK6bd+1GUtu5bPrrKPOsumtNiEK0kKKy6jpI18csXv3eOSh5k+AbIzUm6HQBFAB2BomGtVOqILsR9FxRDwYOdC8B/PfENdOAiTUf06ldvLH+D5wxUmIQnvU1u3/TeaUNK06aa51E4PfiVVQvZS+HZ9k3LN7312Tl3A1Q4+5ygmIaCGMp0zpz74q33vrVP2nnNTL637oVX6HhFvuuMOf/Wpp3xaWvJivkOn9MfbXqHSuQgKCUP7Q1tsGnn9zqkFhWWpiM3OyGlJu7AjJ68kDjI2BvAkgzuiQWg1UBHoGi4uavUEffVhQMkvreOb471BDra7pvZNB2t1jkFk5+lmGSlTm0+utKXwSNXogcJyzQiqF4IuUFxU/zYc0H8RiKgI6NMb9B65kd+caWbPa1z4dgEUm5QerLiF1bTMQo2SKrM4x+Fauw0v6iwCh3pzjApNckbYCMmInGQsTcg+AQAKALoCBTNZ+fMed+ALz98kS7rKUHt7Y/h0wOWHz0vrfkLb+ilPHNUu+eY1b5B3zvpZzm/8N7kpBXC6r3U0H6784V3JiV2WTk5GTSdK/d+ay4e3Um1Tqrg1lHpdphkbHLSX/NXLYT2jFV5+nC024ftdo6jvGOU6ZUXdlL09f1e28i/wg9TNd+6kpbzg1FZVGHpiYqJnZOkiW+32zcgLc8bh2nd919pV2D0wiuTk7pOece+lwS/bZU1feKejSHEDjL+BkRTQgAoAugIdAtoDYuBdBTOm8gkuh4AoBCgI9AtoK+oEPjp4UEQmg3ef1Aw0BHoFpafx9V5AbwVjIVVZbJObQHQJNAR6Br2oreuAA7b+fU1WR09NBCAQoCOQNew+iJ6i1oOWSa6daoa26PftACgEKAj0D28sgkNYqt58fBndQVHL7y4KZjTDkABQEcAAAA6AOgIAABABwAdAQAA6ACgIwAAAB0AdAQAAKADgI4AAAB0ANARAACADgA6AgAA0AFARwAAADoA6AgAAEAHAB0BAADoAKAjAAAAHQB0BAAAoAOAjgAAAHQA0BEAAIAOADoCAADQAUBHAAAAOgDoCAAAQAcAHQEAAOgAoCMAAAAdAHQEAACgA4COAAAAdADQEQAAgA5AdAQAAAAsNX/5uyYAAACAJeMffwEAAAAAAAAAAAAAAAAAAAAAAAAAAAAAAEDIX3WOHQAAALBk/A23wQIAAOgA8JAgAAAASw50BAAAoAOAjgAAAHQA0BEAAIAOADoCAADQAUBHAAAAOgDoCAAAQAcAHQEAAOgAoCMAAAAdAHQEAACgA4COAAAAdADQEQAAgA4AOgIAANABQEcAAAA6AOgIAABABwAdAQAA6ACgIwAAAB0AdAQAAKADgI4AAAB0ANARAACADgA6AgAA0AFARwAAADoA6AgAAEAHAB0BAADoAKAjAAAAHQB0BAAAoAOAjgAAAHQA0BEAAIAOADoCAADQAUBHAAAAOgDoCPQJb42Njb2laSa5DABYWqAj0CdcNISmmeRywCubVmqqE3hx0zpNAdDTQEegT2D7hPpJLkesvmje02QnsNOcW65JAHoZ6Aj0CUn9JJcjPjIXJTpat+k1WW6WvPmVF41BpyLoB6Aj0Cck9ZNc9iw/Z45KYjJDV/WSN7/jW90fAHob6Aj0CUn9JJc97xntq+sUHe00ZrUmAehhoCPQJyT1k1z2fKV9dR2jo9XGfKRJAHoY6Aj0CUn9JJcdyy+6vrFO0REVdFpTAPQw0BHoE5L6SS473nF9dZ2jo+3GbNIkAL0LdAT6hKR+ksuOvca8aFNJnazbO3nenJ7cKQtjk0dtl97KyUnV1xuTk7ExnkT+d746b8zpo29w+ujkF7KO+GLyE/lLpZuLk5/YEpZPTq57Yey8OSdz814xZkxWA9DLQEegT0jqJ7ns+NYYvc0noZP3yCbCt3xb6pgLoiia+l4SLxw2F2M3CMXyr/5RcxsWEb30il3/ol3xwna5LdeYc6IrWrvpK16UOlYbc5j/AtDTQEegT5DGXtNMctlx0ZzTVFxH2405/8kbmz6itXxbKkUsX8n6L6gYCaeWn09II5b/PXNu76bVr2w/ZwwJ5z1jbEz0wke2I24nWW7TyhdJeRc5PiIdHTUX944dtp100T4B0LtAR6BPSOonuayQCDTYietk+TlzTgKa5UeN4f660+Y8L9JfjWE2+UEnJZZ/9U7bt/eaREPLL7rZCT+KafheJ4msyHJ76Q/thbmo8RNBdWCqN+h5oCPQJyT1k1xWSBcuxonphMIXO2jEzxBig3xmwxoSxzmbY2/SGbH8ntNmkv6nmEoCn3U2TKIYSeVz2Fyk/1lHgduoJB3PAqB3gY5An5DUT3JZoRjnM03GdHLUnHcDQ1+JHGhDFsl2c/oTO2b0o3gmIEtHHBe5asashw77qdy0ggonHdmuQAvV2JLnDQHQyUBHoE9I6ie5rLwX3XMa08mP5kdNcSjzhgwV8ZrD5gtSC0U6ZJDEzaoVOlq5adNHY+eteU5bvf1ouwZ/NKfHLIddYeFcuk80lgKgl4GOQJ+Q1E9yWSEdORHEdGKiB8fpU4RskHTevENi2iu9eYkfgojraPn276VKY3VEUdBbMlQkDtNpdRYKhBI62gsdgT4AOgJ9grT0mmaSy8obOvGaSOjId8Vtt4/YfseY7eyTlSQmMsxkFD4psfw8A+L85N4xFx2tk+44CntkvOmij47Gxt6h5YSOKGRCZx3oeaAj0Cck9ZNcVjZFYVBMJ6f9hDt2CMdBK/lpQmO8msKlF5dfdFO3PbH8nxmzVwaf7NgR3990caXOa/B9dp6Ejr7FVAbQB0BHoE9I6ie5rFC446KcmE6OugerctLeKEurlk+yhFYbs/OtygAmlv9HtZDXEcVY773m5s8dTtxYlNDRaY7BAOhxoCPQJ4h+tD+Mx2uSywpFOfZ+ooROKCTSid4kLDsVnDvtLsqgzrdm8ovKO1Vj+Y35Vv4uP6c64uDqE+c4Kj32E3sJHRncBgv6AOgI9AmiH8crlcuO730kEtPJ6nPmon1+z4/uBlVyBqU5UBozF8/5ISdPIjqS/raVtFLDpK/4jiWdzs2S0uDqRe4IjOuIlvADfKD3gY5An6DisVBIoylLMG/tMz9DjswxaWEZ7DTm4tGxscPnI1N8Szll7Oc1LkNkFRLLT/HPj2ObPjlt/PMY3uBMLiai0s1XY29sH/tWtBbXERWfHJcCoPeAjkCfQHKIoEgkueyIbjw6rC8SvOgeoXqep74JY7Rktz1HrpLxpJBY/uVa3ydjTkeciZ9+Z/EPaJUS4zqieipcB0DPAR2BPuFFHSdipMXXNBOMHfGYjh3leeEVfdW9vnrnZ5OTe7dHTwJa/dnkXrv0ztGjXlKeRP53Dk9OfvLaC69NOtFQROQeAEGsHqPSJ7/YKVPoln92NAjYfoyeCAFA7wIdARDnaLtmVX9R591E66JboQDoYaAjAOK8VfG0n2KgMCx542w6n6CvDvQF0BEAcZafc711xbI9Ppk7m+AOXAB6GOgIgAQ729Nb932d1bzGDyMCoPeBjgBIsPJ8O9r/dcFT8KryUTD/DoAeBjoCYElYufM9/MIrAAHQEQAAgA4AOgIAANABQEcAAAA6AOgIAABABwAdAQAA6ACgIwAAAB0AdAQAAKADgI4AAAB0ANARAACADgA6AgAA0AFARwAAADoA6AgAAEAHAB0BAADoAKAjAAAAHQB0BAAAoAOAjgAAAHQA0BEAAIAOADoCAADQAUBHAAAAOgDoCAAAQAcAHQEAAOgAoCMAAAAdAHQEAACgAxAdAQAAAEvNX/6uCQAAAGDJ+MdfAAAAAAAAAAD85S9/+V9FeTtOGn7v8gAAAABJRU5ErkJggg==;" vertex="1" parent="1">
          <mxGeometry x="40" width="1562.84" height="570" as="geometry" />
        </mxCell>
      </root>
    </mxGraphModel>
  </diagram>
</mxfile>
